<svg id="Layer_3" enable-background="new 0 0 64 64" height="512" viewBox="0 0 64 64" width="512" xmlns="http://www.w3.org/2000/svg" fill="#118DF0"><g><path d="m62 57h-1v-41c0-.252-.095-.496-.267-.681l-13-14c-.379-.407-1.087-.407-1.466 0l-13 14c-.172.185-.267.429-.267.681v41h-2v-30c0-.252-.095-.496-.267-.681l-13-14c-.379-.407-1.087-.407-1.466 0l-13 14c-.172.185-.267.429-.267.681v30h-1c-.552 0-1 .448-1 1v4c0 .552.448 1 1 1h60c.552 0 1-.448 1-1v-4c0-.552-.448-1-1-1zm-27-40.607 12-12.923 12 12.923v40.607h-24zm-30 11 12-12.923 12 12.923v29.607h-24zm56 33.607h-58v-2h58z"/><path d="m14 29h-6c-.552 0-1 .448-1 1v10c0 .552.448 1 1 1h6c.552 0 1-.448 1-1v-10c0-.552-.448-1-1-1zm-1 10h-4v-8h4z"/><path d="m26 29h-6c-.552 0-1 .448-1 1v10c0 .552.448 1 1 1h6c.552 0 1-.448 1-1v-10c0-.552-.448-1-1-1zm-1 10h-4v-8h4z"/><path d="m14 43h-6c-.552 0-1 .448-1 1v10c0 .552.448 1 1 1h6c.552 0 1-.448 1-1v-10c0-.552-.448-1-1-1zm-1 10h-4v-8h4z"/><path d="m26 43h-6c-.552 0-1 .448-1 1v10c0 .552.448 1 1 1h6c.552 0 1-.448 1-1v-10c0-.552-.448-1-1-1zm-1 10h-4v-8h4z"/><path d="m44 29h-6c-.552 0-1 .448-1 1v10c0 .552.448 1 1 1h6c.552 0 1-.448 1-1v-10c0-.552-.448-1-1-1zm-1 10h-4v-8h4z"/><path d="m56 29h-6c-.552 0-1 .448-1 1v10c0 .552.448 1 1 1h6c.552 0 1-.448 1-1v-10c0-.552-.448-1-1-1zm-1 10h-4v-8h4z"/><path d="m44 15h-6c-.552 0-1 .448-1 1v10c0 .552.448 1 1 1h6c.552 0 1-.448 1-1v-10c0-.552-.448-1-1-1zm-1 10h-4v-8h4z"/><path d="m56 15h-6c-.552 0-1 .448-1 1v10c0 .552.448 1 1 1h6c.552 0 1-.448 1-1v-10c0-.552-.448-1-1-1zm-1 10h-4v-8h4z"/><path d="m44 43h-6c-.552 0-1 .448-1 1v10c0 .552.448 1 1 1h6c.552 0 1-.448 1-1v-10c0-.552-.448-1-1-1zm-1 10h-4v-8h4z"/><path d="m56 43h-6c-.552 0-1 .448-1 1v10c0 .552.448 1 1 1h6c.552 0 1-.448 1-1v-10c0-.552-.448-1-1-1zm-1 10h-4v-8h4z"/></g></svg>